<?xml version="1.0" encoding="UTF-8"?>
<!DOCTYPE svg PUBLIC "-//W3C//DTD SVG 1.1//EN" "http://www.w3.org/Graphics/SVG/1.1/DTD/svg11.dtd">
<!-- Creator: CorelDRAW 2019 (64-Bit) -->
<svg xmlns="http://www.w3.org/2000/svg" xml:space="preserve" width="131px" height="131px" version="1.1" style="shape-rendering:geometricPrecision; text-rendering:geometricPrecision; image-rendering:optimizeQuality; fill-rule:evenodd; clip-rule:evenodd"
viewBox="0 0 33.62 33.62"
 xmlns:xlink="http://www.w3.org/1999/xlink"
 xmlns:xodm="http://www.corel.com/coreldraw/odm/2003">
 <defs>
  <style type="text/css">
   <![CDATA[
    .str0 {stroke:#D5DA36;stroke-width:0.48;stroke-linecap:round;stroke-miterlimit:10}
    .fil2 {fill:none;fill-rule:nonzero}
    .fil1 {fill:#D5DA36;fill-rule:nonzero}
    .fil0 {fill:#382B4B;fill-rule:nonzero}
   ]]>
  </style>
 </defs>
 <g id="Warstwa_x0020_1">
  <metadata id="CorelCorpID_0Corel-Layer"/>
  <path class="fil0" d="M33.62 16.81c0,9.29 -7.52,16.81 -16.81,16.81 -9.28,0 -16.81,-7.52 -16.81,-16.81 0,-9.28 7.53,-16.81 16.81,-16.81 9.29,0 16.81,7.53 16.81,16.81z"/>
  <path class="fil1" d="M23.16 7.49l-0.48 0 -12 0 -0.48 0 0 0.48 0 16.11 0 0.48 0.48 0 12 0 0.48 0 0 -0.48 0 -16.11 0 -0.48zm-0.48 16.59l-12 0 0 -16.11 12 0 0 16.11z"/>
  <line class="fil2 str0" x1="12.35" y1="7.88" x2="12.35" y2= "24.02" />
  <polygon class="fil2 str0" points="13.43,27.08 12.47,26.64 11.5,27.08 11.5,24.31 13.43,24.31 "/>
  <polygon class="fil2 str0" points="18.18,19.12 16.4,19.12 16.4,12.17 18.18,12.17 "/>
  <polygon class="fil2 str0" points="20.26,15.7 14.27,15.7 14.27,14.1 20.26,14.1 "/>
 </g>
</svg>
