<?xml version="1.0" encoding="UTF-8"?>
<!DOCTYPE svg PUBLIC "-//W3C//DTD SVG 1.1//EN" "http://www.w3.org/Graphics/SVG/1.1/DTD/svg11.dtd">
<!-- Creator: CorelDRAW 2019 (64-Bit) -->
<svg xmlns="http://www.w3.org/2000/svg" xml:space="preserve" width="34.8452mm" height="34.8466mm" version="1.1" style="shape-rendering:geometricPrecision; text-rendering:geometricPrecision; image-rendering:optimizeQuality; fill-rule:evenodd; clip-rule:evenodd" viewBox="0 0 1037.49 1037.53" xmlns:xlink="http://www.w3.org/1999/xlink" xmlns:xodm="http://www.corel.com/coreldraw/odm/2003">
    <defs>
        <style type="text/css">
            <![CDATA[
    .str0 {stroke:#B1B4B6;stroke-width:13.47;stroke-miterlimit:10}
    .fil1 {fill:none;fill-rule:nonzero}
    .fil0 {fill:#291447;fill-rule:nonzero}
   ]]>
        </style>
    </defs>
    <g id="Warstwa_x0020_1">
        <metadata id="CorelCorpID_0Corel-Layer" />
        <g id="_2038151610400">
            <path class="fil0" d="M1037.49 518.77c0,286.47 -232.25,518.76 -518.77,518.76 -286.47,0 -518.72,-232.29 -518.72,-518.76 0,-286.48 232.25,-518.77 518.72,-518.77 286.52,0 518.77,232.29 518.77,518.77z" />
            <path class="fil1 str0" d="M839.54 593.64c-2.24,-2.31 -5.32,-3.61 -8.53,-3.61l-174.35 0c-3.22,-0.07 -6.29,1.26 -8.49,3.61 -2.1,2.23 -3.15,5.31 -2.76,8.38l31.85 231.1c0.9,5.42 5.63,9.34 11.08,9.27l111.01 0c5.45,0.07 10.17,-3.85 11.08,-9.27l31.74 -231.1c0.39,-3.04 -0.55,-6.12 -2.61,-8.38l0 0z" />
            <path class="fil1 str0" d="M287.14 601.96c0,0 75.87,-39.3 115.17,-17 39.29,22.31 146.32,8.81 147.12,5.07" />
            <path class="fil1 str0" d="M418.28 853.05c-28.81,0 -99.33,-3.71 -113.03,-8.01 -14.96,-4.72 -18.12,-31.64 -18.12,-53.36l0 -381.5c0,-49.05 49.89,-79.15 65.59,-85.68 0.53,-0.8 1.19,-2.42 1.65,-3.47 0.87,-1.99 1.78,-4.06 3.07,-5.77 1.05,-1.43 2.66,-3.04 4.34,-4.72 1.08,-1.08 2.93,-2.97 3.84,-4.12 0.46,-29.13 1.22,-79.96 1.37,-90.27 -2.17,0 -4.2,-0.87 -5.74,-2.41 -3.07,-3.11 -3.04,-7.98 -3,-11.47l0 -0.91c0,-1.68 0.41,-3.18 1.15,-4.51l-1.15 -0.66 0 -44.19c0,-7.48 4.65,-14.79 60.02,-14.79 55.41,0 60.03,7.31 60.03,14.79l0 44.19 -1.12 0.69c0.7,1.3 1.12,2.8 1.12,4.48l0.04 0.91c0.03,3.49 0.07,8.35 -3.04,11.47 -1.55,1.54 -3.54,2.41 -5.74,2.41 0.14,10.35 0.91,61.22 1.37,90.34 0.87,1.01 2.75,2.93 3.87,4.05 1.69,1.68 3.25,3.29 4.34,4.72 1.29,1.71 2.16,3.78 3.04,5.77 0.45,1.02 1.15,2.66 1.63,3.47 15.7,6.53 65.6,36.64 65.6,85.68l0 381.5c0,21.71 -3.15,48.64 -18.12,53.36 -13.67,4.3 -84.22,8.01 -113.03,8.01l0 0z" />
        </g>
    </g>
</svg>