<?xml version="1.0" encoding="utf-8"?>
<!-- Generator: Adobe Illustrator 16.2.0, SVG Export Plug-In . SVG Version: 6.00 Build 0)  -->
<!DOCTYPE svg PUBLIC "-//W3C//DTD SVG 1.1//EN" "http://www.w3.org/Graphics/SVG/1.1/DTD/svg11.dtd">
<svg version="1.1" id="Warstwa_1" xmlns="http://www.w3.org/2000/svg" xmlns:xlink="http://www.w3.org/1999/xlink" x="0px" y="0px" width="141.73px" height="141.73px" viewBox="0 0 141.73 141.73" enable-background="new 0 0 141.73 141.73" xml:space="preserve">
	<g>
		<defs>
			<rect id="SVGID_1_" width="141.73" height="141.73" />
		</defs>
		<clipPath id="SVGID_2_">
			<use xlink:href="#SVGID_1_" overflow="visible" />
		</clipPath>
		<path clip-path="url(#SVGID_2_)" fill="#2F1C45" d="M136.5,70.865c0,36.249-29.386,65.635-65.635,65.635S5.23,107.114,5.23,70.865
		S34.616,5.23,70.865,5.23S136.5,34.616,136.5,70.865" />

		<path clip-path="url(#SVGID_2_)" fill="none" stroke="#6CB52D" stroke-width="5.669" stroke-linecap="round" stroke-linejoin="round" stroke-miterlimit="10" d="
		M60.522,26.414c-0.481-0.506-0.462-1.309,0.045-1.792c0.507-0.482,1.309-0.462,1.792,0.045c2.475,2.609,4.387,5.238,5.804,8.105
		c0.295-1.03,0.722-2.025,1.285-2.943c2.354-3.842,6.997-4.201,12.807-4.647c3.734-0.286,7.995-0.614,12.282-1.965
		c0.216-0.089,0.456-0.119,0.702-0.076c0.69,0.12,1.152,0.777,1.031,1.468c-1.026,5.796-2.04,10.781-4.09,14.697
		c-3.451,6.593-12.621,11.168-19.346,7.045c-0.558-0.34-1.071-0.731-1.54-1.166c0.151,2.118,0.177,4.389,0.086,6.858
		c2.113-0.104,4.154-0.378,6.246-0.51c27.659-1.761,36.185,20.121,28.056,43.14c-3.505,9.923-11.839,22.772-23.266,23.866
		c-3.855,0.369-7.796-0.706-11.611-3.646c-4.076,2.96-8.21,3.956-12.196,3.449c-11.717-1.487-19.885-14.95-23.139-25.283
		c-6.795-21.598,0.687-44.074,27.31-41.292c2.067,0.215,3.905,0.386,6.061,0.359c0.226-5.864-0.213-10.539-1.494-14.582
		C66.04,33.406,63.829,29.899,60.522,26.414L60.522,26.414z" />
	</g>
</svg>