<?xml version="1.0" encoding="utf-8"?>
<!-- Generator: Adobe Illustrator 16.2.0, SVG Export Plug-In . SVG Version: 6.00 Build 0)  -->
<!DOCTYPE svg PUBLIC "-//W3C//DTD SVG 1.1//EN" "http://www.w3.org/Graphics/SVG/1.1/DTD/svg11.dtd">
<svg version="1.1" id="Warstwa_1" xmlns="http://www.w3.org/2000/svg" xmlns:xlink="http://www.w3.org/1999/xlink" x="0px" y="0px" width="141.73px" height="141.73px" viewBox="0 0 141.73 141.73" enable-background="new 0 0 141.73 141.73" xml:space="preserve">
	<g>
		<defs>
			<rect id="SVGID_1_" width="141.73" height="141.73" />
		</defs>
		<clipPath id="SVGID_2_">
			<use xlink:href="#SVGID_1_" overflow="visible" />
		</clipPath>
		<path clip-path="url(#SVGID_2_)" fill="#2F1C45" d="M136.5,70.865c0,36.249-29.386,65.635-65.635,65.635S5.23,107.114,5.23,70.865
		S34.616,5.23,70.865,5.23S136.5,34.616,136.5,70.865" />

		<path clip-path="url(#SVGID_2_)" fill="none" stroke="#FFFFFF" stroke-width="5.669" stroke-linecap="round" stroke-linejoin="round" stroke-miterlimit="10" d="
		M91.521,64.101c-3.746-10.798-6.989-20.277-7.502-32.285c1.751-0.058,3.158-1.477,3.158-3.241c0-1.802-1.461-3.263-3.263-3.263
		H57.814c-1.802,0-3.262,1.461-3.262,3.263c0,1.768,1.412,3.19,3.167,3.243c-0.479,11.942-3.713,21.373-7.451,32.116
		c-0.561,1.618-1.136,3.266-1.713,4.956c-0.349,1.028-0.528,2.098-0.528,3.185v34.802c0,5.397,4.39,9.788,9.787,9.788h26.1
		c5.397,0,9.787-4.391,9.787-9.788l0.002-34.802c0-1.085-0.179-2.156-0.527-3.178L91.521,64.101z" />

		<path clip-path="url(#SVGID_2_)" fill="none" stroke="#FFFFFF" stroke-width="5.669" stroke-linecap="round" stroke-linejoin="round" stroke-miterlimit="10" d="
		M48.027,80.378c0,0,9.838-15.886,22.348-9.39c12.51,6.495,23.328,18.939,23.328,4.034" />
	</g>
</svg>