<?xml version="1.0" encoding="utf-8"?>
<!-- Generator: Adobe Illustrator 16.2.0, SVG Export Plug-In . SVG Version: 6.00 Build 0)  -->
<!DOCTYPE svg PUBLIC "-//W3C//DTD SVG 1.1//EN" "http://www.w3.org/Graphics/SVG/1.1/DTD/svg11.dtd">
<svg version="1.1" id="Warstwa_1" xmlns="http://www.w3.org/2000/svg" xmlns:xlink="http://www.w3.org/1999/xlink" x="0px" y="0px" width="141.73px" height="141.73px" viewBox="0 0 141.73 141.73" enable-background="new 0 0 141.73 141.73" xml:space="preserve">
	<g>
		<defs>
			<rect id="SVGID_1_" width="141.73" height="141.73" />
		</defs>
		<clipPath id="SVGID_2_">
			<use xlink:href="#SVGID_1_" overflow="visible" />
		</clipPath>
		<path clip-path="url(#SVGID_2_)" fill="#2F1C45" d="M136.5,70.865c0,36.249-29.386,65.635-65.635,65.635S5.23,107.114,5.23,70.865
		S34.616,5.23,70.865,5.23S136.5,34.616,136.5,70.865" />

		<line clip-path="url(#SVGID_2_)" fill="none" stroke="#ECD000" stroke-width="5.669" stroke-linecap="round" stroke-linejoin="round" stroke-miterlimit="10" x1="117.832" y1="100.437" x2="70.865" y2="100.437" />

		<path clip-path="url(#SVGID_2_)" fill="none" stroke="#ECD000" stroke-width="5.669" stroke-linecap="round" stroke-linejoin="round" stroke-miterlimit="10" d="
		M70.865,88.599c-25.939,0-46.967-11.244-46.967-25.116c0-13.871,21.028-25.116,46.967-25.116c25.938,0,46.967,11.245,46.967,25.116
		" />

		<path clip-path="url(#SVGID_2_)" fill="none" stroke="#ECD000" stroke-width="5.669" stroke-linecap="round" stroke-linejoin="round" stroke-miterlimit="10" d="
		M70.865,112.994c-25.939,0-46.967-11.244-46.967-25.115" />

		<line clip-path="url(#SVGID_2_)" fill="none" stroke="#ECD000" stroke-width="5.669" stroke-linecap="round" stroke-linejoin="round" stroke-miterlimit="10" x1="23.898" y1="88.599" x2="23.898" y2="65.538" />

		<line clip-path="url(#SVGID_2_)" fill="none" stroke="#ECD000" stroke-width="5.669" stroke-linecap="round" stroke-linejoin="round" stroke-miterlimit="10" x1="117.832" y1="63.483" x2="117.832" y2="100.437" />

		<line clip-path="url(#SVGID_2_)" fill="none" stroke="#ECD000" stroke-width="5.669" stroke-linecap="round" stroke-linejoin="round" stroke-miterlimit="10" x1="70.865" y1="112.994" x2="70.865" y2="88.599" />

		<polyline clip-path="url(#SVGID_2_)" fill="none" stroke="#ECD000" stroke-width="5.669" stroke-linecap="round" stroke-linejoin="round" stroke-miterlimit="10" points="
		70.865,88.599 55.669,61.924 96.237,61.924 	" />

		<line clip-path="url(#SVGID_2_)" fill="none" stroke="#ECD000" stroke-width="5.669" stroke-linecap="round" stroke-linejoin="round" stroke-miterlimit="10" x1="42.193" y1="65.539" x2="44.943" y2="66.705" />

		<line clip-path="url(#SVGID_2_)" fill="none" stroke="#ECD000" stroke-width="5.669" stroke-linecap="round" stroke-linejoin="round" stroke-miterlimit="10" x1="83.174" y1="76.499" x2="86.199" y2="75.23" />

		<line clip-path="url(#SVGID_2_)" fill="none" stroke="#ECD000" stroke-width="5.669" stroke-linecap="round" stroke-linejoin="round" stroke-miterlimit="10" x1="66.533" y1="47.116" x2="60.621" y2="48.748" />

		<line clip-path="url(#SVGID_2_)" fill="none" stroke="#ECD000" stroke-width="5.669" stroke-linecap="round" stroke-linejoin="round" stroke-miterlimit="10" x1="105.727" y1="88.599" x2="103.526" y2="86.978" />
	</g>
</svg>