<?xml version="1.0" encoding="utf-8"?>
<!-- Generator: Adobe Illustrator 16.2.0, SVG Export Plug-In . SVG Version: 6.00 Build 0)  -->
<!DOCTYPE svg PUBLIC "-//W3C//DTD SVG 1.1//EN" "http://www.w3.org/Graphics/SVG/1.1/DTD/svg11.dtd">
<svg version="1.1" id="Warstwa_1" xmlns="http://www.w3.org/2000/svg" xmlns:xlink="http://www.w3.org/1999/xlink" x="0px" y="0px" width="141.73px" height="141.73px" viewBox="0 0 141.73 141.73" enable-background="new 0 0 141.73 141.73" xml:space="preserve">
	<g>
		<defs>
			<rect id="SVGID_1_" width="141.73" height="141.73" />
		</defs>
		<clipPath id="SVGID_2_">
			<use xlink:href="#SVGID_1_" overflow="visible" />
		</clipPath>
		<path clip-path="url(#SVGID_2_)" fill="#2F1C45" d="M136.5,70.865c0,36.249-29.386,65.635-65.635,65.635S5.23,107.114,5.23,70.865
		S34.616,5.23,70.865,5.23S136.5,34.616,136.5,70.865" />

		<path clip-path="url(#SVGID_2_)" fill="none" stroke="#6CB52D" stroke-width="5.669" stroke-linecap="round" stroke-miterlimit="10" d="
		M71.422,18.125c-0.354-0.162-0.762-0.161-1.117,0.001c-0.393,0.179-38.539,17.978-38.537,54.256
		c0,18.434,14.879,34.426,34.09,36.928l0.001,9.537c0.043,1.758,1.008,3.365,2.54,4.231c1.533,0.866,3.406,0.864,4.935-0.005
		c1.531-0.869,2.494-2.477,2.535-4.236l-0.002-9.555c8.77-1.127,16.924-5.115,23.195-11.35c3.408-3.332,6.125-7.304,7.996-11.688
		c1.871-4.383,2.857-9.095,2.904-13.86C109.959,36.104,71.807,18.3,71.422,18.125L71.422,18.125z" />

		<line clip-path="url(#SVGID_2_)" fill="none" stroke="#6CB52D" stroke-width="5.669" stroke-linecap="round" stroke-miterlimit="10" x1="70.865" y1="38.24" x2="70.865" y2="103.491" />

		<line clip-path="url(#SVGID_2_)" fill="none" stroke="#6CB52D" stroke-width="5.669" stroke-linecap="round" stroke-miterlimit="10" x1="70.865" y1="55.36" x2="80.424" y2="48.11" />

		<line clip-path="url(#SVGID_2_)" fill="none" stroke="#6CB52D" stroke-width="5.669" stroke-linecap="round" stroke-miterlimit="10" x1="61.307" y1="48.11" x2="70.865" y2="55.36" />

		<line clip-path="url(#SVGID_2_)" fill="none" stroke="#6CB52D" stroke-width="5.669" stroke-linecap="round" stroke-miterlimit="10" x1="70.865" y1="85.677" x2="80.424" y2="78.427" />

		<line clip-path="url(#SVGID_2_)" fill="none" stroke="#6CB52D" stroke-width="5.669" stroke-linecap="round" stroke-miterlimit="10" x1="61.307" y1="78.427" x2="70.865" y2="85.677" />
	</g>
</svg>