<?xml version="1.0" encoding="utf-8"?>
<!-- Generator: Adobe Illustrator 16.2.0, SVG Export Plug-In . SVG Version: 6.00 Build 0)  -->
<!DOCTYPE svg PUBLIC "-//W3C//DTD SVG 1.1//EN" "http://www.w3.org/Graphics/SVG/1.1/DTD/svg11.dtd">
<svg version="1.1" id="Warstwa_1" xmlns="http://www.w3.org/2000/svg" xmlns:xlink="http://www.w3.org/1999/xlink" x="0px" y="0px" width="141.73px" height="141.73px" viewBox="0 0 141.73 141.73" enable-background="new 0 0 141.73 141.73" xml:space="preserve">
	<g>
		<defs>
			<rect id="SVGID_1_" width="141.73" height="141.73" />
		</defs>
		<clipPath id="SVGID_2_">
			<use xlink:href="#SVGID_1_" overflow="visible" />
		</clipPath>
		<path clip-path="url(#SVGID_2_)" fill="#2F1C45" d="M136.5,70.865c0,36.249-29.386,65.635-65.635,65.635S5.23,107.114,5.23,70.865
		S34.616,5.23,70.865,5.23S136.5,34.616,136.5,70.865" />

		<path clip-path="url(#SVGID_2_)" fill="none" stroke="#36A9E1" stroke-width="5.669" stroke-linecap="round" stroke-linejoin="round" stroke-miterlimit="10" d="
		M63.196,43.539c-19.444,0-36.197,11.25-43.818,27.449C27,87.188,43.752,98.437,63.196,98.437c19.443,0,36.195-11.249,43.816-27.449
		C99.392,54.789,82.64,43.539,63.196,43.539z" />

		<path clip-path="url(#SVGID_2_)" fill="none" stroke="#36A9E1" stroke-width="5.669" stroke-linecap="round" stroke-linejoin="round" stroke-miterlimit="10" d="
		M38.782,57.433c1.674,4.172,2.655,9.232,2.655,14.689c0,4.363-0.628,8.474-1.736,12.079" />

		<path clip-path="url(#SVGID_2_)" fill="none" stroke="#36A9E1" stroke-width="5.669" stroke-linecap="round" stroke-linejoin="round" stroke-miterlimit="10" d="
		M122.353,52.351c-6.771,4.748-12.233,11.164-15.749,18.637c3.516,7.472,8.978,13.889,15.749,18.636V52.351z" />
	</g>
</svg>