<?xml version="1.0" encoding="utf-8"?>
<!-- Generator: Adobe Illustrator 16.2.0, SVG Export Plug-In . SVG Version: 6.00 Build 0)  -->
<!DOCTYPE svg PUBLIC "-//W3C//DTD SVG 1.1//EN" "http://www.w3.org/Graphics/SVG/1.1/DTD/svg11.dtd">
<svg version="1.1" id="Warstwa_1" xmlns="http://www.w3.org/2000/svg" xmlns:xlink="http://www.w3.org/1999/xlink" x="0px" y="0px" width="141.73px" height="141.73px" viewBox="0 0 141.73 141.73" enable-background="new 0 0 141.73 141.73" xml:space="preserve">
	<g>
		<defs>
			<rect id="SVGID_1_" width="141.73" height="141.73" />
		</defs>
		<clipPath id="SVGID_2_">
			<use xlink:href="#SVGID_1_" overflow="visible" />
		</clipPath>
		<path clip-path="url(#SVGID_2_)" fill="#2F1C45" d="M136.5,70.865c0,36.249-29.386,65.635-65.635,65.635S5.23,107.114,5.23,70.865
		S34.616,5.23,70.865,5.23S136.5,34.616,136.5,70.865" />

		<path clip-path="url(#SVGID_2_)" fill="none" stroke="#C80051" stroke-width="5.669" stroke-linecap="round" stroke-linejoin="round" stroke-miterlimit="10" d="
		M46.769,79.732c-2.688,0-5.267-1.068-7.168-2.969c-1.899-1.901-2.968-4.479-2.968-7.168c0-2.688,1.069-5.266,2.969-7.167
		c1.901-1.9,4.48-2.968,7.168-2.968c2.688,0.001,5.268,1.069,7.167,2.969c1.901,1.902,2.968,4.48,2.968,7.168
		c-0.003,2.688-1.071,5.264-2.972,7.164C52.033,78.661,49.457,79.729,46.769,79.732z" />

		<path clip-path="url(#SVGID_2_)" fill="none" stroke="#C80051" stroke-width="5.669" stroke-linecap="round" stroke-linejoin="round" stroke-miterlimit="10" d="
		M58.932,96.037c-2.688,0-5.267-1.067-7.168-2.968c-1.9-1.901-2.969-4.479-2.969-7.169c0-2.688,1.069-5.266,2.97-7.167
		c1.901-1.899,4.479-2.968,7.167-2.968c2.689,0,5.268,1.068,7.168,2.97s2.968,4.479,2.968,7.168
		c-0.003,2.687-1.072,5.263-2.972,7.163C64.195,94.965,61.62,96.035,58.932,96.037z" />

		<path clip-path="url(#SVGID_2_)" fill="none" stroke="#C80051" stroke-width="5.669" stroke-linecap="round" stroke-linejoin="round" stroke-miterlimit="10" d="
		M83.034,96.037c-2.688,0-5.267-1.067-7.168-2.968c-1.9-1.901-2.968-4.479-2.968-7.169c0-2.688,1.067-5.266,2.969-7.167
		c1.901-1.899,4.479-2.968,7.168-2.968s5.267,1.068,7.167,2.97s2.968,4.479,2.968,7.168c-0.003,2.687-1.071,5.263-2.972,7.163
		C88.297,94.965,85.722,96.035,83.034,96.037z" />

		<path clip-path="url(#SVGID_2_)" fill="none" stroke="#C80051" stroke-width="5.669" stroke-linecap="round" stroke-linejoin="round" stroke-miterlimit="10" d="
		M70.865,113.177c-2.688,0-5.267-1.067-7.168-2.969c-1.9-1.901-2.968-4.479-2.968-7.168s1.068-5.267,2.969-7.167
		s4.479-2.968,7.168-2.968c2.688,0.001,5.267,1.068,7.167,2.969c1.9,1.901,2.968,4.479,2.968,7.168
		c-0.003,2.688-1.072,5.263-2.972,7.164C76.129,112.106,73.553,113.175,70.865,113.177z" />

		<path clip-path="url(#SVGID_2_)" fill="none" stroke="#C80051" stroke-width="5.669" stroke-linecap="round" stroke-linejoin="round" stroke-miterlimit="10" d="
		M70.865,79.732c-2.688,0-5.267-1.068-7.168-2.969c-1.9-1.901-2.968-4.479-2.968-7.168c0-2.688,1.068-5.266,2.969-7.167
		c1.901-1.9,4.479-2.968,7.168-2.968c2.688,0.001,5.267,1.069,7.167,2.969c1.9,1.902,2.968,4.48,2.968,7.168
		c-0.003,2.688-1.072,5.264-2.972,7.164C76.129,78.661,73.553,79.729,70.865,79.732z" />

		<path clip-path="url(#SVGID_2_)" fill="none" stroke="#C80051" stroke-width="5.669" stroke-linecap="round" stroke-linejoin="round" stroke-miterlimit="10" d="
		M94.962,79.732c-2.688,0-5.267-1.068-7.168-2.969c-1.9-1.901-2.968-4.479-2.968-7.168c0-2.688,1.067-5.266,2.969-7.167
		c1.901-1.9,4.479-2.968,7.168-2.968c2.688,0.001,5.267,1.069,7.167,2.969c1.9,1.902,2.968,4.48,2.968,7.168
		c-0.003,2.688-1.071,5.264-2.972,7.164C100.225,78.661,97.648,79.729,94.962,79.732z" />

		<path clip-path="url(#SVGID_2_)" fill="none" stroke="#C80051" stroke-width="5.669" stroke-linecap="round" stroke-linejoin="round" stroke-miterlimit="10" d="
		M70.865,59.46c0,0-6.213-27.502,20.503-25.145" />

		<path clip-path="url(#SVGID_2_)" fill="none" stroke="#C80051" stroke-width="5.669" stroke-linecap="round" stroke-linejoin="round" stroke-miterlimit="10" d="
		M52.076,29.031c-1.256,4.716-0.047,9.953,3.652,13.653c3.701,3.7,8.937,4.908,13.654,3.652c1.256-4.717,0.048-9.954-3.652-13.654
		C62.03,28.983,56.793,27.775,52.076,29.031z" />
	</g>
</svg>